<svg width="1440" height="890" xmlns="http://www.w3.org/2000/svg" xmlns:xlink="http://www.w3.org/1999/xlink"><defs><path d="M485.466 886.598L1440 333.935V0H0v618.312l465.457 268.305a20 20 0 0 0 20.009-.019z" id="a"/><linearGradient x1="0%" y1="0%" y2="83.208%" id="c"><stop stop-color="#FFF" stop-opacity="0" offset="0%"/><stop stop-color="#FFF" stop-opacity=".541" offset="50.714%"/><stop stop-color="#FFF" offset="100%"/></linearGradient></defs><g fill="none" fill-rule="evenodd"><mask id="b" fill="#fff"><use xlink:href="#a"/></mask><g opacity=".5" mask="url(#b)"><path fill="#8E9CAA" d="M1064.129 209.754L671.806-16.898v-.112L15.129 362.778 15 666l262.202-151.508V317.858L671.157 90.264l430.836 248.606L1718-17.01V-168z"/><path fill="#8E9CAA" d="M1063.268 59L1326-92.055V-243L932-16.473z"/><path fill="#F1F1F3" d="M539-243.65v.112L800.923-92.446l-130.9 75.542v.113L1063.012 210 1718-167.986v-.112l-130.997-75.597L1325.01-92.501 1063.014 58.694l-130.9-75.542 392.896-226.736v-.111l-130.999-75.598-261.994 151.195-.096-.057-130.902-75.54-.025.014v-.03l.025.016 130.998-75.598v-.11L801.019-395z"/><path fill="#ABBCCC" d="M276 58l131.578-75.897.422-.244L276.49-94v.001z"/><path d="M670 245l-126 73 126-73z" fill="#1793EF"/><path fill="#8E9CAA" d="M277-92L15 59.613V211L277 59.012z"/><path fill="#ABBCCC" d="M14.674 209.811L15 210V58.97L-380-168v151.271zM-512 362.088L15 666V362.614L-511.74 59z"/><path d="M13.69-396L-380.57-168.075v.338L13.689 60.188 276.418-91.7l.585-.34 130.943 75.7-.42.243L13.69 211.85l-.326-.19L-380.57-15.83-512 59.961 13.82 364 670.93-16.41l.07-.043-130.848-75.554L13.689-396zm-126.154 228.092l126.153-72.93 126.152 72.93L13.69-94.976l-126.153-72.932z" fill="#F1F1F3"/><path fill="#8E9CAA" d="M670 850l130.788-76.12V622.125L932 546.135l-.096-.055V395L670 546.679zM932.75 697.71v151.692L801 925.306V1077l263.5-151.806V773.501L1328 621.694V470z"/><path fill="#ABBCCC" d="M932.096 545L1064 468.86 932.586 393l-.586.339v151.605zM801 773.297L933 849V697.703L801 622zM276 513.459v258.768L802 1076V924.132l-131.335-75.803V544.782L276 317v196.459zm134.237 26.34l134.058 77.374-39.08 22.648 39.169-22.7v.104l.09.051-.09.053.174 154.744-.084-.05-134.14-77.22.095-.055 69.312-40.166-69.504 40.056V539.8z"/><path fill="#1793EF" d="M544 618.075l.065-.038L544 618z"/><path fill="#8E9CAA" d="M543 615.954L409 539v154l69.474-39.84 25.462-14.682z"/><path fill="#F1F1F3" d="M542.828 618.103V618l-39.106 22.706-25.43 14.766-69.198 40.179-.094.056 133.917 77.244.083.049-.172-154.794zM800.836 925L932 849l-131.164-76L670 849.188zM669.669 389.64l-125.964-72.837 125.964-72.837 125.965 72.837-125.965 72.838zM276 316.636v.336l393.67 227.635 262.338-151.692.583-.34 130.746 75.604L800.674 620.06 932.008 696 1326 468.065 1100.194 337.65 669.67 89 276 316.635z"/><path fill="#8E9CAA" d="M544 318l126 73V245z"/><path fill="#ABBCCC" d="M670 391l126-73-126-73z"/></g><path d="M485.466 886.453L1440 333.789V0H0v618.166l465.457 268.306a20 20 0 0 0 20.009-.02z" fill="url(#c)" opacity=".86" mask="url(#b)"/><path d="M485.466 886.453L1440 333.789V0H0v618.166l465.457 268.306a20 20 0 0 0 20.009-.02z" fill="#1793EF" opacity=".86"/></g></svg>