<svg width="233" height="30" viewBox="0 0 233 30" fill="none" xmlns="http://www.w3.org/2000/svg">
<mask id="mask0" mask-type="alpha" maskUnits="userSpaceOnUse" x="0" y="0" width="114" height="29">
<path fill-rule="evenodd" clip-rule="evenodd" d="M0 0H113.143V28.5714H0V0Z" fill="white"/>
</mask>
<g mask="url(#mask0)">
<path fill-rule="evenodd" clip-rule="evenodd" d="M72.1372 16.6872C72.4708 16.3559 72.8605 16.0937 73.3061 15.9018C73.7508 15.71 74.2275 15.6142 74.7348 15.6142C75.1944 15.6142 75.6186 15.6906 76.0082 15.8443C76.3979 15.998 76.77 16.225 77.1247 16.525C77.3333 16.6926 77.5695 16.776 77.834 16.776C78.1471 16.776 78.4062 16.6713 78.6113 16.4621C78.8164 16.2528 78.919 15.9906 78.919 15.6767C78.919 15.3486 78.7939 15.0729 78.5434 14.8493C77.472 13.9003 76.2028 13.4258 74.7348 13.4258C73.1215 13.4258 71.744 13.998 70.6035 15.1428C69.4626 16.2876 68.8923 17.6698 68.8923 19.2891C68.8923 20.9088 69.4626 22.2906 70.6035 23.4354C71.744 24.5798 73.1215 25.1524 74.7348 25.1524C76.1959 25.1524 77.4654 24.6779 78.5434 23.7285C78.7729 23.4984 78.8879 23.2293 78.8879 22.9223C78.8879 22.608 78.785 22.3482 78.5799 22.1424C78.3748 21.9366 78.1157 21.8335 77.8026 21.8335C77.5384 21.8405 77.3088 21.9173 77.1142 22.0636C76.7661 22.364 76.3979 22.5891 76.0082 22.7393C75.6186 22.8891 75.1944 22.9644 74.7348 22.9644C74.2275 22.9644 73.7508 22.8683 73.3061 22.6764C72.8605 22.4845 72.4708 22.2227 72.1372 21.891C71.8035 21.5594 71.5409 21.1702 71.3497 20.7235C71.1578 20.2767 71.0623 19.7988 71.0623 19.2891C71.0623 18.7794 71.1578 18.3015 71.3497 17.8544C71.5409 17.4076 71.8035 17.0184 72.1372 16.6872V16.6872ZM90.1616 14.0959C90.1025 13.963 90.0245 13.8464 89.927 13.7453C89.8295 13.6437 89.7149 13.5654 89.5828 13.5098C89.4503 13.4538 89.3077 13.426 89.1551 13.426C88.9395 13.426 88.7445 13.4816 88.5708 13.5932L82.3313 17.6661V9.49934C82.3313 9.19239 82.2252 8.93216 82.0131 8.71942C81.801 8.50667 81.5454 8.40011 81.2459 8.40011C80.9402 8.40011 80.6811 8.50667 80.469 8.71942C80.2565 8.93216 80.1508 9.19239 80.1508 9.49934V24.0534C80.1508 24.3534 80.2565 24.6117 80.469 24.8283C80.6811 25.0445 80.9402 25.1526 81.2459 25.1526C81.5454 25.1526 81.801 25.0445 82.0131 24.8283C82.2252 24.6117 82.3313 24.3534 82.3313 24.0534V20.2735L83.6043 19.4356L88.4248 24.87C88.6194 25.0588 88.8629 25.1526 89.1551 25.1526C89.3077 25.1526 89.4503 25.1248 89.5828 25.0688C89.7149 25.0129 89.8295 24.9345 89.927 24.8333C90.0245 24.7322 90.1025 24.6152 90.1616 24.4824C90.221 24.3499 90.2506 24.2102 90.2506 24.0634C90.2506 23.7773 90.1495 23.5229 89.9479 23.2993L85.4615 18.2318L89.8333 15.3839C90.1115 15.1955 90.2506 14.9059 90.2506 14.5148C90.2506 14.3681 90.221 14.2287 90.1616 14.0959ZM65.2033 20.7078C65.0122 21.1515 64.7512 21.5403 64.421 21.8758C64.0904 22.2105 63.7027 22.4758 63.2579 22.6712C62.8123 22.8665 62.3361 22.9646 61.8283 22.9646C61.3136 22.9646 60.8335 22.8665 60.3883 22.6712C59.9431 22.4758 59.557 22.2125 59.2303 21.8808C58.9036 21.5491 58.6445 21.16 58.453 20.7132C58.2614 20.2665 58.1659 19.792 58.1659 19.2893C58.1659 18.7866 58.2614 18.3121 58.453 17.8654C58.6445 17.4186 58.9036 17.0295 59.2303 16.6978C59.557 16.3661 59.9431 16.1028 60.3883 15.9071C60.8335 15.7121 61.3136 15.6144 61.8283 15.6144C62.3361 15.6144 62.8123 15.7121 63.2579 15.9071C63.7027 16.1028 64.0904 16.3681 64.421 16.7032C64.7512 17.0379 65.0122 17.4271 65.2033 17.8704C65.3948 18.3136 65.4904 18.7866 65.4904 19.2893C65.4904 19.792 65.3948 20.265 65.2033 20.7078V20.7078ZM65.9601 15.1428C64.8052 13.998 63.4281 13.4258 61.8284 13.4258C60.2147 13.4258 58.8376 13.998 57.6967 15.1428C56.5562 16.2876 55.9855 17.6698 55.9855 19.2891C55.9855 20.9088 56.5562 22.2906 57.6967 23.4354C58.8376 24.5798 60.2147 25.1524 61.8284 25.1524C63.4281 25.1524 64.8052 24.5798 65.9601 23.4354C67.1007 22.3045 67.6713 20.9227 67.6713 19.2891C67.664 18.4794 67.5198 17.7289 67.2382 17.0378C66.9566 16.3466 66.5304 15.715 65.9601 15.1428V15.1428ZM112.851 14.1586C112.656 13.9702 112.411 13.8215 112.115 13.7138C111.819 13.6057 111.496 13.5304 111.145 13.4883C110.793 13.4462 110.465 13.4258 110.159 13.4258C109.463 13.4258 108.809 13.5374 108.197 13.7605C107.585 13.9841 107.018 14.3049 106.496 14.7239V14.5146C106.496 14.2146 106.391 13.9578 106.178 13.7451C105.966 13.532 105.711 13.4258 105.411 13.4258C105.105 13.4258 104.846 13.532 104.634 13.7451C104.422 13.9578 104.316 14.2146 104.316 14.5146V24.0632C104.316 24.3636 104.422 24.6204 104.634 24.8331C104.846 25.0459 105.105 25.1524 105.411 25.1524C105.711 25.1524 105.966 25.0459 106.178 24.8331C106.391 24.6204 106.496 24.3636 106.496 24.0632V19.2891C106.496 18.7794 106.592 18.3015 106.784 17.8544C106.975 17.4076 107.236 17.0184 107.566 16.6872C107.896 16.3559 108.284 16.0937 108.729 15.9018C109.175 15.71 109.651 15.6142 110.159 15.6142C110.673 15.6142 111.15 15.7011 111.588 15.8756C111.762 15.9528 111.915 15.9906 112.047 15.9906C112.2 15.9906 112.343 15.9628 112.475 15.9069C112.607 15.8513 112.722 15.7729 112.819 15.6713C112.917 15.5702 112.995 15.4536 113.054 15.3208C113.113 15.1879 113.143 15.0451 113.143 14.8918C113.143 14.5914 113.045 14.347 112.851 14.1586V14.1586ZM93.7564 18.2005C93.8675 17.8163 94.0384 17.4657 94.268 17.148C94.4976 16.8306 94.7688 16.5584 95.0815 16.3314C95.3946 16.1044 95.7391 15.9283 96.1148 15.8024C96.4901 15.6769 96.8762 15.6144 97.2728 15.6144C97.6694 15.6144 98.0536 15.6769 98.4258 15.8024C98.7979 15.9283 99.1386 16.1044 99.4482 16.3314C99.7578 16.5584 100.029 16.8306 100.262 17.148C100.495 17.4657 100.67 17.8163 100.789 18.2005H93.7564ZM101.405 15.1428C100.25 13.998 98.8726 13.4258 97.2729 13.4258C95.6592 13.4258 94.2817 13.998 93.1408 15.1428C92.0002 16.2876 91.43 17.6698 91.43 19.2891C91.43 20.9088 92.0002 22.2906 93.1408 23.4354C94.2817 24.5798 95.6592 25.1524 97.2729 25.1524C98.7401 25.1524 100.014 24.6779 101.092 23.7285C101.3 23.5123 101.405 23.2505 101.405 22.9432C101.405 22.6293 101.302 22.369 101.097 22.1632C100.892 21.9571 100.633 21.8544 100.32 21.8544C100.048 21.8613 99.808 21.952 99.5994 22.1266C99.2727 22.4061 98.9177 22.6154 98.535 22.7547C98.1528 22.8941 97.7321 22.9644 97.2729 22.9644C96.8693 22.9644 96.4816 22.9015 96.1094 22.776C95.7373 22.6501 95.3966 22.4737 95.087 22.2466C94.7774 22.0204 94.5078 21.7478 94.2782 21.43C94.0486 21.1127 93.875 20.7621 93.7565 20.3783H102.02C102.326 20.3783 102.585 20.2752 102.798 20.069C103.01 19.8632 103.115 19.6034 103.115 19.2891C103.115 18.4794 102.973 17.7269 102.688 17.0327C102.403 16.3381 101.975 15.7084 101.405 15.1428V15.1428ZM52.276 20.7078C52.0845 21.1515 51.8238 21.5403 51.4933 21.8758C51.1631 22.2105 50.7754 22.4758 50.3298 22.6712C49.885 22.8665 49.4084 22.9646 48.9006 22.9646C48.3855 22.9646 47.9058 22.8665 47.461 22.6712C47.0154 22.4758 46.6297 22.2125 46.3026 21.8808C45.9755 21.5491 45.7164 21.16 45.5252 20.7132C45.3341 20.2665 45.2386 19.792 45.2386 19.2893C45.2386 18.7866 45.3341 18.3121 45.5252 17.8654C45.7164 17.4186 45.9755 17.0295 46.3026 16.6978C46.6297 16.3661 47.0154 16.1028 47.461 15.9071C47.9058 15.7121 48.3855 15.6144 48.9006 15.6144C49.4084 15.6144 49.885 15.7121 50.3298 15.9071C50.7754 16.1028 51.1631 16.3681 51.4933 16.7032C51.8238 17.0379 52.0845 17.4271 52.276 17.8704C52.4671 18.3136 52.5627 18.7866 52.5627 19.2893C52.5627 19.792 52.4671 20.265 52.276 20.7078V20.7078ZM53.6476 8.40011C53.3349 8.40011 53.0758 8.5032 52.8703 8.70899C52.6652 8.91478 52.5626 9.17501 52.5626 9.48891V14.7136C51.5056 13.8549 50.2847 13.426 48.9006 13.426C47.2865 13.426 45.9094 13.9982 44.7688 15.143C43.6279 16.2878 43.058 17.67 43.058 19.2893C43.058 20.909 43.6279 22.2908 44.7688 23.4356C45.9094 24.58 47.2865 25.1526 48.9006 25.1526C50.5003 25.1526 51.8778 24.58 53.0323 23.4356C54.1732 22.3047 54.7435 20.9229 54.7435 19.2893V9.48891C54.7435 9.17501 54.6374 8.91478 54.425 8.70899C54.2129 8.5032 53.9537 8.40011 53.6476 8.40011V8.40011ZM23.4071 13.1272H27.6802V9.26618H23.4071V13.1272ZM18.357 13.1272H22.6301V9.26618H18.357V13.1272ZM13.3069 13.1272H17.5801V9.26618H13.3069V13.1272ZM8.25684 13.1272H12.53V9.26618H8.25684V13.1272ZM3.20689 13.1272H7.48002V9.26618H3.20689V13.1272ZM8.25684 8.49437H12.53V4.63337H8.25684V8.49437ZM13.3069 8.49437H17.5801V4.63337H13.3069V8.49437ZM18.357 8.49437H22.6301V4.63337H18.357V8.49437ZM18.357 3.861H22.6301V0H18.357V3.861ZM35.7937 10.3377C35.582 8.79326 34.7154 7.4535 33.1397 6.2423L32.2338 5.6423L31.6294 6.54346C30.8556 7.70292 30.469 9.31025 30.5957 10.8512C30.6528 11.3929 30.8319 12.3628 31.3932 13.2153C30.8322 13.5149 29.7294 13.9284 28.2629 13.8994H0.159315L0.104541 14.2211C-0.159616 15.7697 -0.154178 20.6025 3.00289 24.3168C5.40206 27.14 8.99965 28.5713 13.6954 28.5713C23.8744 28.5713 31.4048 23.9145 34.9313 15.4492C36.3166 15.4767 39.3039 15.4566 40.8384 12.5446C40.8776 12.4782 40.9701 12.3029 41.2377 11.7508L41.3849 11.4485L40.5218 10.8759C39.5883 10.2558 37.4447 10.0284 35.7937 10.3377V10.3377Z" fill="white"/>
</g>
<g opacity="0.5">
<path d="M126.85 13.5221C128.469 13.5221 129.813 14.1392 130.882 15.3735C131.019 15.5244 131.088 15.7027 131.088 15.9084C131.088 16.2101 130.937 16.4638 130.635 16.6695C130.498 16.7655 130.341 16.8135 130.162 16.8135C129.847 16.8135 129.579 16.6901 129.36 16.4432C129.017 16.073 128.64 15.8055 128.229 15.641C127.831 15.4627 127.371 15.3735 126.85 15.3735C125.794 15.3735 124.937 15.7301 124.279 16.4432C123.621 17.1427 123.291 18.0752 123.291 19.241C123.291 19.9815 123.442 20.6467 123.744 21.2364C124.059 21.8124 124.491 22.265 125.04 22.5941C125.602 22.9232 126.24 23.0878 126.953 23.0878C127.886 23.0878 128.64 22.8478 129.216 22.3678C129.477 22.1758 129.73 22.0798 129.977 22.0798C130.169 22.0798 130.347 22.1415 130.512 22.265C130.773 22.4844 130.903 22.7312 130.903 23.0055C130.903 23.2112 130.821 23.3964 130.656 23.561C129.669 24.4798 128.434 24.9392 126.953 24.9392C125.87 24.9392 124.896 24.6924 124.032 24.1987C123.168 23.705 122.489 23.0261 121.995 22.1621C121.515 21.2844 121.275 20.3107 121.275 19.241C121.275 18.1438 121.509 17.1632 121.975 16.2992C122.455 15.4215 123.12 14.7427 123.97 14.2627C124.821 13.769 125.781 13.5221 126.85 13.5221Z" fill="white"/>
<path d="M138.508 13.5221C139.591 13.5221 140.558 13.769 141.409 14.2627C142.273 14.7427 142.945 15.4147 143.425 16.2787C143.918 17.1427 144.165 18.1301 144.165 19.241C144.165 20.3381 143.925 21.3187 143.445 22.1827C142.965 23.0467 142.293 23.7255 141.429 24.2192C140.579 24.6992 139.605 24.9392 138.508 24.9392C137.411 24.9392 136.43 24.6992 135.566 24.2192C134.702 23.7255 134.03 23.0467 133.55 22.1827C133.07 21.3187 132.83 20.3381 132.83 19.241C132.83 18.1301 133.07 17.1427 133.55 16.2787C134.03 15.4147 134.702 14.7427 135.566 14.2627C136.43 13.769 137.411 13.5221 138.508 13.5221ZM138.508 15.3735C137.809 15.3735 137.178 15.5381 136.615 15.8672C136.067 16.1964 135.635 16.6558 135.319 17.2455C135.004 17.8352 134.846 18.5004 134.846 19.241C134.846 19.9815 135.004 20.6467 135.319 21.2364C135.635 21.8124 136.067 22.265 136.615 22.5941C137.178 22.9232 137.809 23.0878 138.508 23.0878C139.207 23.0878 139.831 22.9232 140.38 22.5941C140.942 22.265 141.374 21.8124 141.676 21.2364C141.991 20.6467 142.149 19.9815 142.149 19.241C142.149 18.5004 141.991 17.8352 141.676 17.2455C141.374 16.6558 140.942 16.1964 140.38 15.8672C139.831 15.5381 139.207 15.3735 138.508 15.3735Z" fill="white"/>
<path d="M158.317 13.5015C159.51 13.5015 160.47 13.8924 161.197 14.6741C161.937 15.4558 162.307 16.5461 162.307 17.945V23.8284C162.307 24.1301 162.211 24.3838 162.019 24.5895C161.827 24.7815 161.574 24.8775 161.258 24.8775C160.957 24.8775 160.703 24.7815 160.497 24.5895C160.305 24.3838 160.209 24.1301 160.209 23.8284V17.945C160.209 17.1084 159.997 16.4775 159.571 16.0524C159.16 15.6135 158.605 15.3941 157.905 15.3941C157.192 15.3941 156.602 15.641 156.136 16.1347C155.683 16.6284 155.457 17.2592 155.457 18.0272V23.8284C155.457 24.1301 155.361 24.3838 155.169 24.5895C154.977 24.7815 154.723 24.8775 154.408 24.8775C154.106 24.8775 153.853 24.7815 153.647 24.5895C153.455 24.3838 153.359 24.1301 153.359 23.8284V17.945C153.359 17.1084 153.146 16.4775 152.721 16.0524C152.31 15.6135 151.754 15.3941 151.055 15.3941C150.328 15.3941 149.731 15.641 149.265 16.1347C148.813 16.6284 148.586 17.2592 148.586 18.0272V23.8284C148.586 24.1301 148.49 24.3838 148.298 24.5895C148.106 24.7815 147.853 24.8775 147.537 24.8775C147.235 24.8775 146.982 24.7815 146.776 24.5895C146.584 24.3838 146.488 24.1301 146.488 23.8284V14.6741C146.488 14.3587 146.584 14.105 146.776 13.913C146.982 13.721 147.235 13.625 147.537 13.625C147.839 13.625 148.086 13.721 148.278 13.913C148.47 14.0912 148.573 14.3312 148.586 14.633C148.943 14.2764 149.368 14.0021 149.862 13.8101C150.355 13.6044 150.89 13.5015 151.466 13.5015C152.166 13.5015 152.79 13.6455 153.338 13.9335C153.901 14.2078 154.36 14.6055 154.717 15.1267C155.128 14.6192 155.642 14.2215 156.259 13.9335C156.877 13.6455 157.562 13.5015 158.317 13.5015Z" fill="white"/>
<path d="M176.822 13.5015C178.016 13.5015 178.976 13.8924 179.702 14.6741C180.443 15.4558 180.813 16.5461 180.813 17.945V23.8284C180.813 24.1301 180.717 24.3838 180.525 24.5895C180.333 24.7815 180.08 24.8775 179.764 24.8775C179.462 24.8775 179.209 24.7815 179.003 24.5895C178.811 24.3838 178.715 24.1301 178.715 23.8284V17.945C178.715 17.1084 178.502 16.4775 178.077 16.0524C177.666 15.6135 177.11 15.3941 176.411 15.3941C175.698 15.3941 175.108 15.641 174.642 16.1347C174.189 16.6284 173.963 17.2592 173.963 18.0272V23.8284C173.963 24.1301 173.867 24.3838 173.675 24.5895C173.483 24.7815 173.229 24.8775 172.914 24.8775C172.612 24.8775 172.358 24.7815 172.153 24.5895C171.961 24.3838 171.865 24.1301 171.865 23.8284V17.945C171.865 17.1084 171.652 16.4775 171.227 16.0524C170.816 15.6135 170.26 15.3941 169.561 15.3941C168.834 15.3941 168.237 15.641 167.771 16.1347C167.318 16.6284 167.092 17.2592 167.092 18.0272V23.8284C167.092 24.1301 166.996 24.3838 166.804 24.5895C166.612 24.7815 166.358 24.8775 166.043 24.8775C165.741 24.8775 165.488 24.7815 165.282 24.5895C165.09 24.3838 164.994 24.1301 164.994 23.8284V14.6741C164.994 14.3587 165.09 14.105 165.282 13.913C165.488 13.721 165.741 13.625 166.043 13.625C166.345 13.625 166.592 13.721 166.784 13.913C166.976 14.0912 167.078 14.3312 167.092 14.633C167.449 14.2764 167.874 14.0021 168.368 13.8101C168.861 13.6044 169.396 13.5015 169.972 13.5015C170.672 13.5015 171.296 13.6455 171.844 13.9335C172.406 14.2078 172.866 14.6055 173.222 15.1267C173.634 14.6192 174.148 14.2215 174.765 13.9335C175.382 13.6455 176.068 13.5015 176.822 13.5015Z" fill="white"/>
<path d="M192.777 13.5838C193.093 13.5838 193.346 13.6798 193.538 13.8718C193.73 14.0638 193.826 14.3175 193.826 14.633V23.8078C193.826 24.1095 193.73 24.3632 193.538 24.569C193.346 24.761 193.093 24.857 192.777 24.857C192.476 24.857 192.222 24.761 192.016 24.569C191.824 24.3632 191.728 24.1095 191.728 23.8078V23.5815C191.289 24.0204 190.768 24.3632 190.165 24.6101C189.561 24.8432 188.917 24.9598 188.231 24.9598C187.285 24.9598 186.434 24.7541 185.68 24.3427C184.926 23.9312 184.336 23.3347 183.911 22.553C183.486 21.7575 183.273 20.8044 183.273 19.6935V14.633C183.273 14.3312 183.369 14.0844 183.561 13.8924C183.767 13.6867 184.021 13.5838 184.322 13.5838C184.624 13.5838 184.871 13.6867 185.063 13.8924C185.269 14.0844 185.372 14.3312 185.372 14.633V19.6935C185.372 20.8044 185.666 21.6478 186.256 22.2238C186.86 22.7861 187.655 23.0672 188.642 23.0672C189.218 23.0672 189.74 22.9507 190.206 22.7175C190.686 22.4844 191.056 22.169 191.317 21.7712C191.591 21.3735 191.728 20.9278 191.728 20.4341V14.633C191.728 14.3175 191.824 14.0638 192.016 13.8718C192.222 13.6798 192.476 13.5838 192.777 13.5838Z" fill="white"/>
<path d="M202.317 13.5015C203.264 13.5015 204.114 13.7072 204.868 14.1187C205.622 14.5301 206.212 15.1335 206.637 15.929C207.062 16.7107 207.275 17.657 207.275 18.7678V23.8284C207.275 24.1301 207.172 24.3838 206.966 24.5895C206.774 24.7815 206.528 24.8775 206.226 24.8775C205.924 24.8775 205.67 24.7815 205.465 24.5895C205.273 24.3838 205.177 24.1301 205.177 23.8284V18.7678C205.177 17.657 204.875 16.8204 204.272 16.2581C203.682 15.6821 202.893 15.3941 201.906 15.3941C201.33 15.3941 200.802 15.5107 200.322 15.7438C199.856 15.977 199.485 16.2924 199.211 16.6901C198.95 17.0878 198.82 17.5335 198.82 18.0272V23.8284C198.82 24.1301 198.724 24.3838 198.532 24.5895C198.34 24.7815 198.086 24.8775 197.771 24.8775C197.469 24.8775 197.216 24.7815 197.01 24.5895C196.818 24.3838 196.722 24.1301 196.722 23.8284V14.6535C196.722 14.3381 196.818 14.0844 197.01 13.8924C197.216 13.7004 197.469 13.6044 197.771 13.6044C198.086 13.6044 198.34 13.7004 198.532 13.8924C198.724 14.0844 198.82 14.3381 198.82 14.6535V14.8798C199.259 14.441 199.78 14.105 200.384 13.8718C200.987 13.625 201.632 13.5015 202.317 13.5015Z" fill="white"/>
<path d="M210.15 14.6535C210.15 14.3381 210.246 14.0844 210.438 13.8924C210.644 13.7004 210.897 13.6044 211.199 13.6044C211.515 13.6044 211.768 13.7004 211.96 13.8924C212.152 14.0844 212.248 14.3381 212.248 14.6535V23.8078C212.248 24.1095 212.152 24.3632 211.96 24.569C211.768 24.761 211.515 24.857 211.199 24.857C210.897 24.857 210.644 24.761 210.438 24.569C210.246 24.3632 210.15 24.1095 210.15 23.8078V14.6535ZM211.199 9.05811C211.569 9.05811 211.885 9.19525 212.145 9.46953C212.42 9.7301 212.557 10.0455 212.557 10.4158C212.557 10.7861 212.42 11.1084 212.145 11.3827C211.885 11.6432 211.569 11.7735 211.199 11.7735C210.829 11.7735 210.507 11.6432 210.232 11.3827C209.972 11.1084 209.841 10.7861 209.841 10.4158C209.841 10.0455 209.972 9.7301 210.232 9.46953C210.507 9.19525 210.829 9.05811 211.199 9.05811Z" fill="white"/>
<path d="M220.145 22.7998C220.392 22.7998 220.598 22.8958 220.762 23.0878C220.94 23.2798 221.03 23.5267 221.03 23.8284C221.03 24.1301 220.913 24.377 220.68 24.569C220.46 24.761 220.172 24.857 219.816 24.857H219.446C218.774 24.857 218.156 24.6855 217.594 24.3427C217.046 23.9861 216.614 23.5061 216.298 22.9027C215.983 22.2992 215.825 21.6204 215.825 20.8661V15.785H214.879C214.591 15.785 214.358 15.7027 214.179 15.5381C214.001 15.3735 213.912 15.1678 213.912 14.921C213.912 14.6467 214.001 14.4272 214.179 14.2627C214.358 14.0981 214.591 14.0158 214.879 14.0158H215.825V11.0535C215.825 10.7518 215.921 10.505 216.113 10.313C216.305 10.121 216.552 10.025 216.854 10.025C217.155 10.025 217.402 10.121 217.594 10.313C217.786 10.505 217.882 10.7518 217.882 11.0535V14.0158H219.631C219.919 14.0158 220.152 14.0981 220.33 14.2627C220.508 14.4272 220.598 14.6467 220.598 14.921C220.598 15.1678 220.508 15.3735 220.33 15.5381C220.152 15.7027 219.919 15.785 219.631 15.785H217.882V20.8661C217.882 21.4147 218.033 21.8741 218.335 22.2444C218.636 22.6147 219.007 22.7998 219.446 22.7998H220.145Z" fill="white"/>
<path d="M231.407 13.7072C231.833 13.8718 232.045 14.1392 232.045 14.5095C232.045 14.6467 232.004 14.8112 231.922 15.0032L225.627 29.1564C225.462 29.5815 225.195 29.7941 224.825 29.7941C224.687 29.7941 224.523 29.753 224.331 29.6707C223.919 29.4924 223.714 29.225 223.714 28.8684C223.714 28.7038 223.755 28.5392 223.837 28.3747L225.894 23.7461L221.266 14.9621C221.197 14.8387 221.163 14.6947 221.163 14.5301C221.163 14.3518 221.218 14.1872 221.327 14.0364C221.437 13.8855 221.581 13.769 221.759 13.6867C221.883 13.6318 222.02 13.6044 222.171 13.6044C222.555 13.6044 222.843 13.7964 223.035 14.1804L226.799 21.6684L230.111 14.201C230.29 13.8032 230.557 13.6044 230.914 13.6044C231.092 13.6044 231.257 13.6387 231.407 13.7072Z" fill="white"/>
</g>
</svg>
