<svg xmlns="http://www.w3.org/2000/svg" xmlns:xlink="http://www.w3.org/1999/xlink" width="119.31578826904297" height="31.3157901763916" version="1.1" preserveAspectRatio="xMidYMid"><rect id="backgroundrect" width="100%" height="100%" x="0" y="0" fill="none" stroke="none" class="" style=""/>
    
<g class="currentLayer" style=""><title>Layer 1</title><g id="svg_1" class="" stroke-width="1" fill="#ffffff" fill-opacity="1">
        <path d="M32.49763712692629,7.412704944610596 L33.37908464092152,8.008760452270508 C34.91204489166239,9.16362190246582 35.793500122625574,10.46749496459961 35.985116295484204,11.957637786865234 C37.633043934849866,11.6596097946167 39.74083727023071,11.883132934570312 40.660622681036784,12.479187965393066 L40.660622681036784,12.479187965393066 L41.50374773215708,12.963481903076172 L41.35045788065736,13.261510848999023 C41.082181348112954,13.820317268371582 41.00554028084707,13.969332695007324 40.96721781797214,14.043839454650879 C39.4725800301062,16.83785057067871 36.5216539266371,16.875104904174805 35.141995102847886,16.83785057067871 C31.654514005047986,24.996379852294922 24.21968804267499,29.504066467285156 14.178838142707264,29.504066467285156 C9.541659043134587,29.504066467285156 6.015853070907269,28.125680923461914 3.6397754860140594,25.406169891357422 C0.4972193734039365,21.829832077026367 0.4972193734039365,17.17313575744629 0.7654898469227192,15.682995796203613 L0.7654898469227192,15.682995796203613 L0.8421354961383258,15.384965896606445 L28.55028261614325,15.384965896606445 C30.006592153408292,15.384965896606445 31.117986020105036,15.012431144714355 31.654514005047986,14.714405059814453 C31.079663557230106,13.894824028015137 30.88803387967755,12.963481903076172 30.84971141680262,12.441933631896973 C30.734736311209872,10.95179557800293 31.117986020105036,9.3871431350708 31.884460357749504,8.269536018371582 L31.884460357749504,8.269536018371582 L32.49763712692629,7.412704944610596 zM56.50566462920369,9.14251708984375 C56.81483723343672,9.14251708984375 57.07657363563749,9.239313125610352 57.290873835805996,9.432913780212402 C57.50518175294246,9.626508712768555 57.61233185302672,9.87096118927002 57.61233185302672,10.166279792785645 L57.61233185302672,19.38015365600586 C57.61233185302672,20.915803909301758 57.036159874446184,22.215185165405273 55.88381591728512,23.2783260345459 C54.717419361474185,24.354598999023438 53.32619280271729,24.892724990844727 51.71009379769066,24.892724990844727 C50.079942194014166,24.892724990844727 48.68871563525727,24.354598999023438 47.53635624416029,23.2783260345459 C46.384004570031266,22.202058792114258 45.807851883870626,20.902679443359375 45.807851883870626,19.38015365600586 C45.807851883870626,17.857622146606445 46.384004570031266,16.558244705200195 47.53635624416029,15.481973648071289 C48.68871563525727,14.405704498291016 50.079942194014166,13.867578506469727 51.71009379769066,13.867578506469727 C53.108365948192386,13.867578506469727 54.34149884289627,14.271172523498535 55.40953878361006,15.078378677368164 L55.40953878361006,10.166279792785645 C55.40953878361006,9.87096118927002 55.51317766327384,9.626508712768555 55.72045542260139,9.432913780212402 C55.92773704041292,9.239313125610352 56.18947730109767,9.14251708984375 56.50566462920369,9.14251708984375 zM64.76923314366695,13.867578506469727 C66.3853282902096,13.867578506469727 67.77655870745048,14.405704498291016 68.94295526326141,15.481973648071289 C69.5191349588099,16.02010726928711 69.94951026177705,16.6140193939209 70.23408117216286,17.263715744018555 C70.51864436558071,17.913415908813477 70.66444875816205,18.61888885498047 70.67147891597097,19.38015365600586 C70.67147891597097,20.915803909301758 70.09531465435839,22.215185165405273 68.94295526326141,23.2783260345459 C67.77655870745048,24.354598999023438 66.3853282902096,24.892724990844727 64.76923314366695,24.892724990844727 C63.13906996453852,24.892724990844727 61.74785112274958,24.354598999023438 60.59549944862056,23.2783260345459 C59.44314391600756,22.202058792114258 58.86697965439498,20.902679443359375 58.86697965439498,19.38015365600586 C58.86697965439498,17.857622146606445 59.44314391600756,16.558244705200195 60.59549944862056,15.481973648071289 C61.74785112274958,14.405704498291016 63.13906996453852,13.867578506469727 64.76923314366695,13.867578506469727 zM77.8072820162165,13.867578506469727 C79.28989676800529,13.867578506469727 80.57218674859587,14.31382942199707 81.65429086341146,15.206350326538086 C81.90724535607706,15.416351318359375 82.03371102695792,15.675572395324707 82.03371102695792,15.984012603759766 C82.03371102695792,16.27933120727539 81.93007214729414,16.52542495727539 81.72280210493454,16.72230339050293 C81.51551662863903,16.91918182373047 81.25378022643827,17.017621994018555 80.93758518136428,17.017621994018555 C80.67057037308086,17.017621994018555 80.43168391300105,16.938867568969727 80.2208794993171,16.781368255615234 C79.8625112243576,16.499174118041992 79.48660999819958,16.285890579223633 79.09312180206734,16.141515731811523 C78.69966447380693,15.997137069702148 78.27103320559809,15.924945831298828 77.8072820162165,15.924945831298828 C77.29435830701232,15.924945831298828 76.81303558159243,16.015186309814453 76.36334470782867,16.195653915405273 C75.91366155103287,16.376131057739258 75.52017335490063,16.62222671508789 75.18288783639991,16.93394660949707 C74.8456177518351,17.245670318603516 74.58037012921386,17.611536026000977 74.38714496853618,18.031538009643555 C74.19392752482645,18.45154571533203 74.09731108600363,18.90108299255371 74.09731108600363,19.38015365600586 C74.09731108600363,19.859224319458008 74.19392752482645,20.308752059936523 74.38714496853618,20.728769302368164 C74.58037012921386,21.148773193359375 74.8456177518351,21.514638900756836 75.18288783639991,21.826356887817383 C75.52017335490063,22.13808250427246 75.91366155103287,22.38417625427246 76.36334470782867,22.56464385986328 C76.81303558159243,22.745115280151367 77.29435830701232,22.83535385131836 77.8072820162165,22.83535385131836 C78.27103320559809,22.83535385131836 78.69966447380693,22.764808654785156 79.09312180206734,22.623706817626953 C79.48660999819958,22.48261070251465 79.85900772090508,22.270977020263672 80.21034583805567,21.988779067993164 C80.40706678521792,21.850969314575195 80.63894623839269,21.77877426147461 80.90596876364407,21.772212982177734 C81.22217152568601,21.772212982177734 81.48389249395086,21.8690185546875 81.69116253631046,22.06260871887207 C81.8984788804778,22.256208419799805 82.00210232620566,22.500656127929688 82.00210232620566,22.795974731445312 C82.00210232620566,23.08473014831543 81.88615488265032,23.33738899230957 81.65429086341146,23.553956985473633 C80.56518745865878,24.44647216796875 79.28284345929251,24.892724990844727 77.8072820162165,24.892724990844727 C76.17714198799194,24.892724990844727 74.78589613681515,24.354598999023438 73.63355989662205,23.2783260345459 C72.48120822249302,22.202058792114258 71.90503624391249,20.902679443359375 71.90503624391249,19.38015365600586 C71.90503624391249,17.857622146606445 72.48120822249302,16.558244705200195 73.63355989662205,15.481973648071289 C74.78589613681515,14.405704498291016 76.17714198799194,13.867578506469727 77.8072820162165,13.867578506469727 zM84.38448467391981,9.14251708984375 C84.68662712034393,9.14251708984375 84.9448368681883,9.242596626281738 85.1591756531966,9.442754745483398 C85.37348357033306,9.642914772033691 85.48063367041732,9.887368202209473 85.48063367041732,10.17612361907959 L85.48063367041732,17.85434913635254 L91.78337464575861,14.0250825881958 C91.95903598736595,13.92008113861084 92.15577236846411,13.867578506469727 92.37359922298901,13.867578506469727 C92.52818552510553,13.867578506469727 92.67221501505674,13.893829345703125 92.80572627768242,13.946332931518555 C92.93923754030811,13.998830795288086 93.05516183295958,14.072661399841309 93.15353002350867,14.167819023132324 C93.2519059310257,14.262975692749023 93.33095855077818,14.372896194458008 93.39069559973404,14.497590065002441 C93.45040949778604,14.622276306152344 93.48026644681204,14.753528594970703 93.48026644681204,14.891340255737305 C93.48026644681204,15.258848190307617 93.33975589424927,15.531198501586914 93.05869620428393,15.708386421203613 L88.6425378193494,18.38591957092285 L93.17462821390336,23.150352478027344 C93.37837931887452,23.360368728637695 93.48026644681204,23.599899291992188 93.48026644681204,23.868961334228516 C93.48026644681204,24.006778717041016 93.45040949778604,24.138029098510742 93.39069559973404,24.26271629333496 C93.33095855077818,24.38740348815918 93.2519059310257,24.497331619262695 93.15353002350867,24.592483520507812 C93.05516183295958,24.68764305114746 92.93923754030811,24.761472702026367 92.80572627768242,24.8139705657959 C92.67221501505674,24.866479873657227 92.52818552510553,24.892724990844727 92.37359922298901,24.892724990844727 C92.07850236830973,24.892724990844727 91.83256259951713,24.804134368896484 91.63581078448306,24.626943588256836 L86.76648117323612,19.517972946166992 L85.48063367041732,20.305477142333984 L85.48063367041732,23.85911750793457 C85.48063367041732,24.141311645507812 85.37348357033306,24.384117126464844 85.1591756531966,24.58756446838379 C84.9448368681883,24.791006088256836 84.68662712034393,24.892724990844727 84.38448467391981,24.892724990844727 C84.07533522059066,24.892724990844727 83.81359110142193,24.791006088256836 83.59928318428547,24.58756446838379 C83.38495983321309,24.384117126464844 83.27782516706475,24.141311645507812 83.27782516706475,23.85911750793457 L83.27782516706475,10.17612361907959 C83.27782516706475,9.887368202209473 83.38495983321309,9.642914772033691 83.59928318428547,9.442754745483398 C83.81359110142193,9.242596626281738 84.07533522059066,9.14251708984375 84.38448467391981,9.14251708984375 zM100.57391946807593,13.867578506469727 C102.19003776552245,13.867578506469727 103.58124503185945,14.405704498291016 104.74764930463834,15.481973648071289 C105.32381356625092,16.013545989990234 105.7559637718482,16.605812072753906 106.04404590265449,17.2587947845459 C106.33212803346078,17.911781311035156 106.47616524037994,18.61888885498047 106.47616524037994,19.38015365600586 C106.47616524037994,19.675472259521484 106.36902285726364,19.91992950439453 106.15469950619126,20.113521575927734 C105.94040702299071,20.30712127685547 105.67865518685403,20.403921127319336 105.36949029958896,20.403921127319336 L97.02204606040004,20.403921127319336 C97.14148929043995,20.764863967895508 97.31715063204729,21.094623565673828 97.54903008522206,21.393218994140625 C97.78090953839683,21.691823959350586 98.05315645095516,21.947757720947266 98.36586342651253,22.161052703857422 C98.67851638329421,22.374338150024414 99.02283205960384,22.540035247802734 99.39874100272982,22.65816307067871 C99.77466537979171,22.776290893554688 100.16637867329382,22.83535385131836 100.57391946807593,22.83535385131836 C101.03767837442547,22.83535385131836 101.46277527130997,22.769733428955078 101.84921787569738,22.63847541809082 C102.2356759140207,22.507226943969727 102.59402875504429,22.310348510742188 102.9242841157361,22.047840118408203 C103.13508081245209,21.883785247802734 103.37748620992033,21.79846954345703 103.65153117601267,21.79189682006836 C103.96771078715074,21.79189682006836 104.22943175541559,21.88869857788086 104.43674809958293,22.082294464111328 C104.64401814194252,22.27589225769043 104.74764930463834,22.52034568786621 104.74764930463834,22.815662384033203 C104.74764930463834,23.104421615600586 104.64222780537648,23.350509643554688 104.43146197653232,23.553956985473633 C103.34235085481168,24.44647216796875 102.05651106896084,24.892724990844727 100.57391946807593,24.892724990844727 C98.94376400591545,24.892724990844727 97.55254902261049,24.354598999023438 96.40020506544943,23.2783260345459 C95.2478533913204,22.202058792114258 94.67168141273987,20.902679443359375 94.67168141273987,19.38015365600586 C94.67168141273987,17.857622146606445 95.2478533913204,16.558244705200195 96.40020506544943,15.481973648071289 C97.55254902261049,14.405704498291016 98.94376400591545,13.867578506469727 100.57391946807593,13.867578506469727 zM113.59090873507057,13.867578506469727 C113.90008905627155,13.867578506469727 114.23208845172167,13.887264251708984 114.58689148748499,13.926641464233398 C114.9417331080881,13.966021537780762 115.26846953139147,14.036567687988281 115.56710075739511,14.138287544250488 C115.86574741733466,14.240004539489746 116.11340806998169,14.379462242126465 116.31016760198372,14.556653022766113 C116.50688083217801,14.733843803405762 116.60527989059892,14.963528633117676 116.60527989059892,15.245719909667969 C116.60527989059892,15.390100479125977 116.57538435673314,15.524629592895508 116.5156781756491,15.649322509765625 C116.45593340972528,15.774009704589844 116.37690394087667,15.88393497467041 116.27854346729555,15.97909164428711 C116.18014440887464,16.074249267578125 116.06423555015908,16.1480770111084 115.93071657056544,16.200578689575195 C115.79722074187566,16.25307846069336 115.65317581798854,16.279329299926758 115.49857408193611,16.279329299926758 C115.3650859702143,16.279329299926758 115.2105151020337,16.243236541748047 115.0348460434584,16.17104721069336 C114.59216217659969,16.006980895996094 114.11085488511571,15.924945831298828 113.59090873507057,15.924945831298828 C113.07797730889843,15.924945831298828 112.59664686651058,16.015186309814453 112.14697142668274,16.195653915405273 C111.69726511898307,16.376131057739258 111.30555182548096,16.62222671508789 110.97178524436868,16.93394660949707 C110.6380340971923,17.245670318603516 110.37455366023323,17.611536026000977 110.18129763168372,18.031538009643555 C109.98807247100603,18.45154571533203 109.8914405982473,18.90108299255371 109.8914405982473,19.38015365600586 L109.8914405982473,23.868961334228516 C109.8914405982473,24.151151657104492 109.78430593209896,24.3923282623291 109.56999029799454,24.592483520507812 C109.35569009782603,24.79265022277832 109.09744948210982,24.892724990844727 108.79531475265367,24.892724990844727 C108.48616529932451,24.892724990844727 108.22444433105966,24.79265022277832 108.01011326301932,24.592483520507812 C107.79581306285081,24.3923282623291 107.68866296276656,24.151151657104492 107.68866296276656,23.868961334228516 L107.68866296276656,14.891340255737305 C107.68866296276656,14.609148979187012 107.79581306285081,14.367977142333984 108.01011326301932,14.167819023132324 C108.22444433105966,13.967658996582031 108.48616529932451,13.867578506469727 108.79531475265367,13.867578506469727 C109.09744948210982,13.867578506469727 109.35569009782603,13.967658996582031 109.56999029799454,14.167819023132324 C109.78430593209896,14.367977142333984 109.8914405982473,14.609148979187012 109.8914405982473,14.891340255737305 L109.8914405982473,15.088223457336426 C110.41844005700523,14.694462776184082 110.99110081516528,14.392589569091797 111.60943830666338,14.182581901550293 C112.22777579816147,13.972579956054688 112.8882479347053,13.867578506469727 113.59090873507057,13.867578506469727 zM51.71009379769066,15.924945831298828 C51.190128355225625,15.924945831298828 50.70529826786924,16.016822814941406 50.2556035356215,16.200578689575195 C49.80591266185775,16.38433074951172 49.4159511200819,16.632062911987305 49.08569961787407,16.943790435791016 C48.7554558326342,17.255517959594727 48.49371557194945,17.621374130249023 48.30049041127177,18.041383743286133 C48.10726525059408,18.461397171020508 48.01064495328728,18.90764617919922 48.01064495328728,19.38015365600586 C48.01064495328728,19.852663040161133 48.10726525059408,20.29891014099121 48.30049041127177,20.71891975402832 C48.49371557194945,21.138925552368164 48.7554558326342,21.504783630371094 49.08569961787407,21.816513061523438 C49.4159511200819,22.12823486328125 49.80591266185775,22.3759708404541 50.2556035356215,22.559730529785156 C50.70529826786924,22.743480682373047 51.190128355225625,22.83535385131836 51.71009379769066,22.83535385131836 C52.22301750689485,22.83535385131836 52.70433251534678,22.743480682373047 53.154023389110534,22.559730529785156 C53.60372197984225,22.3759708404541 53.995462282732205,22.126596450805664 54.32920185445664,21.81159019470215 C54.662972294052906,21.496585845947266 54.926456589495956,21.130727767944336 55.1196894671416,20.71400260925293 C55.31291462781928,20.29726791381836 55.40953878361006,19.852663040161133 55.40953878361006,19.38015365600586 C55.40953878361006,18.90764617919922 55.31291462781928,18.463031768798828 55.1196894671416,18.04630470275879 C54.926456589495956,17.629579544067383 54.662972294052906,17.263717651367188 54.32920185445664,16.948711395263672 C53.995462282732205,16.63370704650879 53.60372197984225,16.38433074951172 53.154023389110534,16.200578689575195 C52.70433251534678,16.016822814941406 52.22301750689485,15.924945831298828 51.71009379769066,15.924945831298828 zM64.76923314366695,15.924945831298828 C64.24925998423396,15.924945831298828 63.76444533081349,16.016822814941406 63.31474674008177,16.200578689575195 C62.86504814935006,16.38433074951172 62.475078890606255,16.632062911987305 62.144831246882404,16.943790435791016 C61.81459517861049,17.255517959594727 61.55285877640972,17.621374130249023 61.35963361573204,18.041383743286133 C61.16640459657037,18.461397171020508 61.06977272381164,18.90764617919922 61.06977272381164,19.38015365600586 C61.06977272381164,19.852663040161133 61.16640459657037,20.29891014099121 61.35963361573204,20.71891975402832 C61.55285877640972,21.138925552368164 61.81459517861049,21.504783630371094 62.144831246882404,21.816513061523438 C62.475078890606255,22.12823486328125 62.86504814935006,22.3759708404541 63.31474674008177,22.559730529785156 C63.76444533081349,22.743480682373047 64.24925998423396,22.83535385131836 64.76923314366695,22.83535385131836 C65.2821645698391,22.83535385131836 65.76347186132307,22.743480682373047 66.21317045205478,22.559730529785156 C66.66286132581854,22.3759708404541 67.0545823362886,22.126596450805664 67.38834120043293,21.81159019470215 C67.72211549851318,21.496585845947266 67.9856036524402,21.130727767944336 68.17882881311789,20.71400260925293 C68.37205397379557,20.29726791381836 68.46866269565044,19.852663040161133 68.46866269565044,19.38015365600586 C68.46866269565044,18.90764617919922 68.37205397379557,18.463031768798828 68.17882881311789,18.04630470275879 C67.9856036524402,17.629579544067383 67.72211549851318,17.263717651367188 67.38834120043293,16.948711395263672 C67.0545823362886,16.63370704650879 66.66286132581854,16.38433074951172 66.21317045205478,16.200578689575195 C65.76347186132307,16.016822814941406 65.2821645698391,15.924945831298828 64.76923314366695,15.924945831298828 zM100.57391946807593,15.924945831298828 C100.17340883110273,15.924945831298828 99.7834627232628,15.984012603759766 99.40401940881247,16.102136611938477 C99.02459152829806,16.220264434814453 98.67676463156795,16.385967254638672 98.36059273739784,16.59925651550293 C98.04440540929181,16.812538146972656 97.77036044319948,17.0684814453125 97.53847327305675,17.36707878112793 C97.3066092538179,17.665678024291992 97.134466849599,17.995447158813477 97.02204606040004,18.356386184692383 L104.12580830968773,18.356386184692383 C104.00638051358374,17.995447158813477 103.82895198631422,17.665678024291992 103.59356902968693,17.36707878112793 C103.35817835609168,17.0684814453125 103.08413338999935,16.812538146972656 102.7714572823138,16.59925651550293 C102.45878889159621,16.385967254638672 102.1144886492225,16.220264434814453 101.7385642721606,16.102136611938477 C101.36263989509871,15.984012603759766 100.97443010504912,15.924945831298828 100.57391946807593,15.924945831298828 zM8.047035724583566,10.914538383483887 L8.047035724583566,14.639896392822266 L3.831400099306393,14.639896392822266 L3.831400099306393,10.914538383483887 L8.047035724583566,10.914538383483887 zM13.02913049472454,10.914538383483887 L13.02913049472454,14.639896392822266 L8.813513920712012,14.639896392822266 L8.813513920712012,10.914538383483887 L13.02913049472454,10.914538383483887 zM18.011225264865516,10.914538383483887 L18.011225264865516,14.639896392822266 L13.795604832369008,14.639896392822266 L13.795604832369008,10.914538383483887 L18.011225264865516,10.914538383483887 zM22.993324858111464,10.914538383483887 L22.993324858111464,14.639896392822266 L18.77771310720391,14.639896392822266 L18.77771310720391,10.914538383483887 L22.993324858111464,10.914538383483887 zM27.97543216832537,10.914538383483887 L27.97543216832537,14.639896392822266 L23.7598049834819,14.639896392822266 L23.7598049834819,10.914538383483887 L27.97543216832537,10.914538383483887 zM22.993324858111464,6.444112300872803 L22.993324858111464,10.169466018676758 L18.77771310720391,10.169466018676758 L18.77771310720391,6.444112300872803 L22.993324858111464,6.444112300872803 zM18.011225264865516,6.444112300872803 L18.011225264865516,10.169466018676758 L13.795604832369008,10.169466018676758 L13.795604832369008,6.444112300872803 L18.011225264865516,6.444112300872803 zM13.02913049472454,6.444112300872803 L13.02913049472454,10.169466018676758 L8.813513920712012,10.169466018676758 L8.813513920712012,6.444112300872803 L13.02913049472454,6.444112300872803 zM22.993324858111464,1.9736852645874023 L22.993324858111464,5.699040412902832 L18.77771310720391,5.699040412902832 L18.77771310720391,1.9736852645874023 L22.993324858111464,1.9736852645874023 z" fill="#ffffff" id="svg_2" stroke-width="1" fill-opacity="1"/>
    </g></g></svg>
